<?xml version="1.0" encoding="utf-8"?>
<!-- Generator: Adobe Illustrator 26.3.1, SVG Export Plug-In . SVG Version: 6.00 Build 0)  -->
<svg version="1.1" id="圖層_1" xmlns="http://www.w3.org/2000/svg" xmlns:xlink="http://www.w3.org/1999/xlink" x="0px" y="0px"
	 viewBox="0 0 3840 320" style="enable-background:new 0 0 3840 320;" xml:space="preserve">
<style type="text/css">
	.st0{fill:#F4F6F8;}
</style>
<path class="st0" d="M0,256l58.2-5.3C116.2,245,232,235,349.4,192c116-43,232-117,349.4-112c116,5,232,91,349.4,106.7
	c115.8,16.3,232-37.7,349.4-37.4c115.4-0.3,232,53.7,349.4,48c115.2-5.3,232-69.3,346.6-106.6C2211,53,2328,43,2442.6,69.3
	C2560,96,2677.4,160,2792,176c117,16,234.6-16,349.4-37.3c116.8-21.7,232-31.7,349.4-26.7c116.6,5,232,27,290.6,37.3L3840,160V0
	h-58.2c-58.2,0-173.8,0-291.2,0c-116,0-232,0-349.4,0c-116,0-232,0-349.4,0c-115.8,0-232,0-349.4,0c-115.4,0-232,0-349.4,0
	c-115.2,0-232,0-346.6,0c-117.4,0-234.4,0-349,0C1280,0,1162.6,0,1048,0C931,0,813.4,0,698.6,0c-116.8,0-232,0-349.4,0
	c-116.6,0-232,0-290.6,0H0V256z"/>
</svg>
