<?xml version="1.0" encoding="utf-8"?>
<!-- Generator: Adobe Illustrator 26.3.1, SVG Export Plug-In . SVG Version: 6.00 Build 0)  -->
<svg version="1.1" id="圖層_1" xmlns="http://www.w3.org/2000/svg" xmlns:xlink="http://www.w3.org/1999/xlink" x="0px" y="0px"
	 viewBox="0 0 96 96" style="enable-background:new 0 0 96 96;" xml:space="preserve">
<style type="text/css">
	.st0{fill:#FDFDFD;}
	.st1{fill:#151515;}
	.st2{fill:#F1F1F1;}
</style>
<g id="uo8f0s.tif">
	<g>
		<g>
			<path class="st0" d="M-19,115c0-43.8,0-87.6-0.1-131.4c0-2.3,0.4-2.7,2.7-2.7c42.9,0.1,85.8,0.1,128.7,0c2.3,0,2.7,0.4,2.7,2.7
				c-0.1,42.9-0.1,85.8,0,128.7c0,2.3-0.4,2.7-2.7,2.7C68.6,115,24.8,115-19,115z M55.1,69.6c1.6,0.6,3.3,0.4,3.9,2.3
				c3.5,9.8,3.5,9.8,1.2,20.4c-0.1,0.5-0.3,1.1-0.4,1.6c-0.2,0.9-0.6,1.9,1,2.3c1.7,0.4,1.9-0.6,2.1-1.7c0.7-3,1.5-6,2-9.1
				c0.4-2.1,1.3-2.7,3.3-2.5c4.5,0.5,8.9-0.1,13.1-1.7c4.8-1.8,7-5,7-10.1c0-1.6,0.2-3.1,0-4.7c-0.3-2.6,0.6-3.6,3.3-3.3
				c2.4,0.3,4.2-0.6,4.2-3.4c0-6.2,0-12.4,0-18.7c0-1.9-0.8-3.2-2.8-3.5c-6.7-1.2-7.7-0.4-7.8,6.3c0,0.6,0,1.1,0,1.7
				c0,0.6-0.3,1.2-0.9,1.1c-1.9-0.3-3.4,0.9-5,1.4c-2,0.5-3.6,0.1-4.9-2.1c-3.3-5.3-5.3-11-6.3-17c-1.1-6.5-3.8-11.8-10.8-13.8
				c-0.8-0.2-2.7-0.4-1.9-2c0.7-1.4-0.3-4.3,2.9-4c1,0.1,1.7-0.2,1.7-1.4c0-1.4-0.7-1.7-1.9-1.7c-1.3,0.1-2.2-0.1-3-1.5
				c-2.5-4.2-6.1-5.5-9.8-4c-3.8,1.6-6.2,6.3-4.9,10.6c0.7,2.4,0.1,3.4-2.1,4c-5.3,1.5-9,4.6-10.3,10.2c-0.3,1.4-0.6,2.8-1,4.2
				c-1.1,3.9-1.2,8.1-3.5,11.7c-1.3,2.1-1.9,4.7-3.6,6.3c-2.2,2-4.7-0.7-7.2-0.8c-2.1-0.1-2.5-0.7-2.5-2.7c0-6.9-0.1-6.9-6.9-6.5
				c-2.5,0.1-3.7,1.2-3.7,3.7c0,6.1,0,12.2,0,18.3c0,2.3,1.1,3.8,3.4,3.5c3.8-0.5,4.5,1.3,4.1,4.5c-0.1,1,0,2,0,3
				c0,5.8,2.3,9,7.8,10.9c3.6,1.3,7.4,2,11.1,1.4c3.4-0.5,4.5,0.8,4.9,3.9c0.3,2.6,1.1,5.2,1.7,7.8c0.2,1,0.3,2,1.9,1.7
				c1.7-0.3,1.5-1.3,1.2-2.5c-0.1-0.4-0.2-0.9-0.3-1.3c-1.3-5.6-3.5-11.3,0.3-16.8c0.3-0.4,0.3-1.1,0.4-1.6c0.2-2.7,1.5-4.2,4.3-4.1
				c0.6,6.1,3.5,9.8,7.6,9.7C51.8,79.6,54.7,75.8,55.1,69.6z M76.9,11.5c-0.1-3.7-1.4-6.8-4-9.3c-0.8-0.7-1.4-1-2.2-0.1
				c-0.7,0.7-0.9,1.2-0.2,2.2c4.3,6.1,4.4,8.2,0.1,13.8c-0.8,1.1-0.8,1.6,0.1,2.5c0.9,0.9,1.5,0.4,2.2-0.3
				C75.5,17.8,76.8,14.8,76.9,11.5z M70.9,11.2c-0.1-1.9-0.8-3.6-2.2-5c-0.6-0.6-1.2-1.4-2.1-0.3c-0.6,0.7-1.3,1.2-0.4,2.2
				c1.9,2,2.1,4.1,0.1,6.1c-1.1,1.1-0.2,1.7,0.4,2.4c1,1,1.5,0,2.1-0.6C70.2,14.7,70.8,13.1,70.9,11.2z"/>
			<path class="st1" d="M55.1,69.6c-0.4,6.1-3.2,10-7.2,10.1c-4.1,0.1-6.9-3.6-7.6-9.7c-2.9-0.1-4.2,1.4-4.3,4.1
				c0,0.5-0.1,1.2-0.4,1.6c-3.8,5.6-1.6,11.2-0.3,16.8c0.1,0.4,0.2,0.9,0.3,1.3c0.3,1.2,0.5,2.1-1.2,2.5c-1.5,0.3-1.6-0.7-1.9-1.7
				c-0.6-2.6-1.4-5.2-1.7-7.8c-0.4-3.1-1.6-4.4-4.9-3.9c-3.8,0.6-7.5-0.2-11.1-1.4C9.3,79.7,7,76.5,7,70.7c0-1-0.1-2,0-3
				c0.4-3.2-0.2-5-4.1-4.5c-2.3,0.3-3.4-1.2-3.4-3.5c0-6.1,0-12.2,0-18.3c0-2.5,1.2-3.6,3.7-3.7c6.9-0.4,6.9-0.4,6.9,6.5
				c0,2,0.4,2.6,2.5,2.7c2.4,0.1,5,2.7,7.2,0.8c1.7-1.5,2.3-4.2,3.6-6.3c2.3-3.6,2.4-7.8,3.5-11.7c0.4-1.4,0.6-2.8,1-4.2
				c1.2-5.6,5-8.7,10.3-10.2c2.2-0.6,2.8-1.6,2.1-4c-1.3-4.3,1.1-9,4.9-10.6c3.7-1.5,7.3-0.2,9.8,4c0.8,1.4,1.7,1.5,3,1.5
				c1.2-0.1,1.9,0.3,1.9,1.7c0,1.2-0.6,1.5-1.7,1.4c-3.1-0.2-2.1,2.6-2.9,4c-0.8,1.6,1.1,1.8,1.9,2c7,2,9.6,7.2,10.8,13.8
				c1,6.1,3,11.8,6.3,17c1.4,2.2,3,2.6,4.9,2.1c1.7-0.4,3.1-1.6,5-1.4c0.7,0.1,0.9-0.4,0.9-1.1c0-0.6,0-1.1,0-1.7
				c0.1-6.7,1.1-7.5,7.8-6.3c2,0.3,2.8,1.6,2.8,3.5c0,6.2,0,12.4,0,18.7c0,2.8-1.8,3.7-4.2,3.4c-2.6-0.3-3.6,0.6-3.3,3.3
				c0.2,1.5,0,3.1,0,4.7c0,5.1-2.2,8.3-7,10.1c-4.2,1.6-8.6,2.2-13.1,1.7c-2.1-0.2-3,0.4-3.3,2.5c-0.5,3.1-1.3,6.1-2,9.1
				c-0.3,1.1-0.5,2.2-2.1,1.7c-1.6-0.4-1.1-1.4-1-2.3c0.1-0.5,0.3-1.1,0.4-1.6C62.5,81.8,62.5,81.8,59,72
				C58.3,70.1,56.6,70.3,55.1,69.6z M16.4,57.3c-0.1,0-0.2,0-0.2,0c0.6,3.4,1.2,6.8,1.8,10.2c0.1,0.6,0.2,1.7,0.9,1.5
				c2.6-0.7,5.4,0.7,7.9-0.3c2.4-1,4.7-1.1,7.2-0.8c3.7,0.5,5.3-0.9,5.5-4.5c0.3-5.4,4.1-9.7,8.7-9.6c4.6,0.1,8.3,4.4,8.4,9.9
				c0.1,3.4,1.6,4.7,5,4.3c2.5-0.3,4.8-0.2,7.1,0.8c2.5,1,5.2-0.4,7.9,0.4c0.6,0.2,0.8-0.7,0.9-1.2c1-4.9,2.5-9.7,1.2-14.8
				c-0.2-0.7,0.2-1.7-1-1.8c-0.9,0-0.9,0.8-1.2,1.4c-1,2.4-2.8,3.8-5.4,3.6c-2.2-0.2-3.5-1.8-4.5-3.6c-1.4-2.4-3.5-1.3-5.4-1.4
				c-2-0.1-1.2,1.7-1.3,2.7c-0.1,1-0.1,1.7-1.4,1.7c-1.4,0-1.8-0.6-1.7-1.8c0.4-2.6-1.2-2.6-3-2.5c-3.9,0.1-7.8,0.1-11.7,0
				c-2.1-0.1-3.8,0-3.3,2.9c0.2,1.2-0.6,1.5-1.7,1.4c-1,0-1.5-0.5-1.3-1.4c0.6-3.2-1.4-3.1-3.7-3.2c-2.4-0.2-3.3,1.4-4.4,2.8
				c-2.4,3-5.7,3.1-7.9,0.4c-0.8-1-0.3-3.4-2-2.9c-1.4,0.4-0.8,2.7-1.2,4.2C16.3,56.1,16.4,56.7,16.4,57.3z M47.3,39.2
				c0-0.1,0-0.2,0-0.2c2.9,0,6.4,1,8.5-0.3c2.3-1.5,0.6-5.3,0.9-8.1c0.1-1,0.2-2.1,1.4-2.4c1.3-0.3,2,0.7,2.4,1.8
				c1,2.5,1.2,5.2,1.7,7.8c0.2,1-0.2,2.7,1.5,2.2c1.2-0.4,3.3-0.9,2.9-2.7c-1.3-5.3-1.7-10.8-4.6-15.6c-1.2-1.9-3.8-3.6-5.1-2.7
				c-2.3,1.5-3.6,4.4-5.4,6.6c-1,1.2,0,2.1,0.4,3c0.6,1.5,0.2,2.9-0.7,4.1c-1.6,2.3-4.7,1.6-6.7,3.3c-0.6,0.5-1.5-0.3-1.4-1.2
				c0.1-2.3-0.5-4.6,0.6-6.9c0.7-1.4-4-9.1-5.6-9.3c-0.3,0-0.6,0.1-0.9,0.2c-2.1,0.8-4,1.7-5,4c-2.1,4.4-2.5,9.2-3.6,13.8
				c-0.5,2.1,1.7,2.1,2.9,2.5c1.5,0.6,1.3-1,1.5-1.9c0.7-2.3,1.2-4.7,1.9-7.1c0.4-1.3,1.1-2.4,2.6-2c1.3,0.3,1.3,1.6,1.4,2.7
				c0.2,2.6-1.2,6.3,0.5,7.6C41.1,39.9,44.6,39.1,47.3,39.2z M16.5,73.9c-1.8-7-3.8-13.7-2.8-20.8c0.2-1.5,0.6-3.2-1.6-3.3
				c-1.8-0.1-1.8,1.6-1.8,3c-0.1,5.2-0.2,10.4-0.2,15.7c0,7.5,2,9.9,9.5,11.1c2.2,0.4,4.5,0.1,6.6,0.3c4,0.4,5.6-1.7,6.3-5.2
				c0.2-1.3,1.3-2.8,0.1-3.7c-1.4-1.1-3.2-0.4-4.7,0.4c-0.8,0.4-1.3,1.6-2.6,1C22.3,70.9,19.5,72,16.5,73.9z M78.9,74
				c-2.6-1.6-4.8-2.9-7.3-2c-1.9,0.7-3.2,0.5-4.8-0.6c-1.2-0.9-3-1.3-4.3-0.1c-1.3,1.2,1.6,8.3,3.5,8.5c5.1,0.5,10.3,0.7,15-1.6
				c2.2-1,4.3-2.5,4.2-5.4C85.1,66,85,59.3,85,52.6c0-1.4-0.1-3-2-2.8c-1.9,0.2-1.6,1.9-1.4,3.2C82.8,60.2,80.6,66.9,78.9,74z
				 M42.4,63.4c-0.1,3.8,2.3,7.2,5.3,7.2c3,0.1,5.5-2.8,5.7-6.6c0.2-3.8-2.3-7.1-5.4-7.2C45,56.7,42.5,59.6,42.4,63.4z M47.6,48.2
				c2.2,0,4.5-0.2,6.7,0c2.3,0.2,2.6-0.9,2.4-2.7c-0.2-1.5,0.7-3.4-2.2-3.3c-4.5,0.2-9.1,0.2-13.7,0c-2.7-0.1-2.1,1.6-2.1,3.1
				c0,1.6-0.3,3.2,2.2,3C43.1,48,45.4,48.2,47.6,48.2z M7,50.5c0-2.5-0.1-5.1,0-7.6c0.1-1.8-0.6-2.3-2.3-2.3c-1.6,0-2.3,0.5-2.3,2.3
				c0.1,5,0.1,10,0,14.9c0,1.5,0.2,2.4,2.1,2.4c1.9,0,2.5-0.6,2.4-2.4C6.9,55.4,7,53,7,50.5z M88.3,50.6c0,2.4,0.1,4.9,0,7.3
				c-0.1,1.6,0.3,2.4,2.2,2.3c1.6-0.1,2.4-0.3,2.4-2.2c-0.1-5.1-0.1-10.2,0-15.3c0-1.9-0.9-2.1-2.4-2.2c-1.8-0.1-2.2,0.7-2.2,2.4
				C88.4,45.5,88.3,48.1,88.3,50.6z M41,16.6c2.3,3.3,4,5.6,5.6,7.9c0.6,0.8,1.1,1.5,2,0.3c1.7-2.5,3.5-4.9,5.2-7.4
				c-0.1-0.3-0.2-0.7-0.4-1C49.6,18.9,45.7,17.5,41,16.6z M48.1,9.9C48.1,9.9,48.1,9.9,48.1,9.9c-1.2,0-2.4,0-3.7,0
				c-1,0-1.3,0.4-1,1.5c0.8,2.6,4,4.2,6.4,3c1.6-0.8,3.1-2.2,2.8-3.8c-0.3-1.5-2.3-0.5-3.5-0.7C48.7,9.9,48.4,9.9,48.1,9.9z
				 M43.7,6.7c2.9,0,5.7,0,8.7,0c-0.8-2.3-2.3-3.6-4.4-3.6C45.8,3.2,44.3,4.3,43.7,6.7z M73.6,50.9c-1.2-0.9-0.9-3.4-2.9-3.7
				c-0.9-0.1-2.9,0.8-2.6,1.9c0.4,1.7,1.3,3.6,3.4,3.9C72.6,53.2,73.3,52.3,73.6,50.9z M23.6,53.2c1.7-0.7,2.8-2.3,3.3-4.1
				c0.4-1.3-1.6-2-2.2-1.9c-2,0.4-2.2,2.5-2.8,4.1C21.5,52.2,22.3,52.9,23.6,53.2z M35.3,41.1c-1.6,2.6-2.8,4.5-3.6,6.8
				C36.1,48.5,36.1,48.5,35.3,41.1z M51.1,73.7c-2.6,0.2-4.8,0-7.2-0.6c0.8,2,1.8,3.4,3.6,3.5C49.2,76.7,50.2,75.6,51.1,73.7z
				 M27.9,41.1c-1.4,0.1-1.8,1.3-2,2.2c-0.4,1.6,1.4,1.9,2.3,2.2c1.6,0.5,1.9-1.3,2.1-2.3C30.7,41.5,28.7,41.9,27.9,41.1z M63.5,48
				c-1.2-2.2-2.1-4.1-3.4-6.5C59.3,48.3,59.3,48.3,63.5,48z M67.5,41.5c-0.8,0.9-2.7,0.8-2.5,2.5c0.1,0.7,0.4,2,1.6,1.7
				c1.1-0.3,2.5-0.7,2.7-2C69.4,42.8,68.8,41.8,67.5,41.5z M49,30.5c0.1-0.7-0.1-1.3-0.9-1.6c-0.9-0.3-1.6,0-1.8,1
				c-0.2,0.9,0.2,1.5,1.1,1.7C48.3,31.6,48.8,31.2,49,30.5z"/>
			<path class="st1" d="M76.9,11.5c-0.2,3.3-1.4,6.3-3.9,8.8c-0.7,0.7-1.3,1.1-2.2,0.3c-0.9-0.8-0.9-1.4-0.1-2.5
				c4.2-5.5,4.2-7.7-0.1-13.8c-0.7-1-0.5-1.5,0.2-2.2c0.8-0.9,1.4-0.6,2.2,0.1C75.5,4.7,76.9,7.7,76.9,11.5z"/>
			<path class="st1" d="M70.9,11.2c-0.1,1.9-0.7,3.5-2,4.8c-0.6,0.6-1.1,1.6-2.1,0.6c-0.7-0.7-1.6-1.3-0.4-2.4c2-2,1.9-4.1-0.1-6.1
				c-1-1-0.2-1.5,0.4-2.2c0.9-1.1,1.5-0.3,2.1,0.3C70.2,7.6,70.8,9.3,70.9,11.2z"/>
			<path class="st2" d="M16.4,57.3c0-0.6-0.1-1.1,0-1.7c0.4-1.4-0.2-3.7,1.2-4.2c1.7-0.5,1.2,1.9,2,2.9c2.2,2.6,5.5,2.6,7.9-0.4
				c1.2-1.4,2-3,4.4-2.8c2.3,0.1,4.3,0,3.7,3.2c-0.2,0.9,0.3,1.4,1.3,1.4c1.1,0,1.8-0.3,1.7-1.4c-0.5-2.9,1.2-3,3.3-2.9
				c3.9,0.1,7.8,0.1,11.7,0c1.8,0,3.4,0,3,2.5c-0.2,1.2,0.3,1.9,1.7,1.8c1.3,0,1.3-0.8,1.4-1.7c0.1-1-0.7-2.9,1.3-2.7
				c1.8,0.1,4-1.1,5.4,1.4c1,1.8,2.3,3.4,4.5,3.6c2.7,0.2,4.4-1.2,5.4-3.6c0.3-0.6,0.3-1.4,1.2-1.4c1.2,0,0.8,1.1,1,1.8
				c1.3,5.1-0.2,9.9-1.2,14.8c-0.1,0.5-0.3,1.4-0.9,1.2c-2.6-0.7-5.4,0.7-7.9-0.4c-2.4-1-4.7-1.1-7.1-0.8c-3.5,0.5-5-0.9-5-4.3
				c-0.1-5.4-3.8-9.8-8.4-9.9c-4.6-0.1-8.4,4.2-8.7,9.6c-0.2,3.7-1.8,5-5.5,4.5c-2.5-0.3-4.8-0.2-7.2,0.8c-2.5,1-5.2-0.4-7.9,0.3
				c-0.7,0.2-0.8-0.9-0.9-1.5c-0.6-3.4-1.2-6.8-1.8-10.2C16.2,57.3,16.3,57.3,16.4,57.3z"/>
			<path class="st2" d="M47.3,39.2c-2.7-0.1-6.2,0.7-8-0.7c-1.8-1.3-0.4-5-0.5-7.6c-0.1-1.1-0.1-2.4-1.4-2.7c-1.5-0.3-2.2,0.8-2.6,2
				c-0.7,2.3-1.2,4.7-1.9,7.1c-0.2,0.8,0.1,2.4-1.5,1.9c-1.2-0.4-3.4-0.4-2.9-2.5c1.1-4.6,1.6-9.4,3.6-13.8c1.1-2.3,3-3.2,5-4
				c0.3-0.1,0.6-0.3,0.9-0.2c1.6,0.2,6.2,7.8,5.6,9.3c-1,2.3-0.4,4.6-0.6,6.9c-0.1,1,0.8,1.7,1.4,1.2c2-1.7,5.1-1,6.7-3.3
				c0.9-1.2,1.2-2.6,0.7-4.1c-0.4-1-1.3-1.8-0.4-3c1.8-2.2,3.1-5.1,5.4-6.6c1.3-0.9,4,0.8,5.1,2.7c2.9,4.8,3.3,10.3,4.6,15.6
				c0.4,1.8-1.7,2.3-2.9,2.7c-1.7,0.5-1.3-1.2-1.5-2.2c-0.5-2.6-0.8-5.3-1.7-7.8c-0.4-1.1-1.1-2-2.4-1.8c-1.2,0.2-1.3,1.3-1.4,2.4
				c-0.3,2.8,1.4,6.6-0.9,8.1c-2,1.3-5.6,0.3-8.5,0.3C47.3,39.1,47.3,39.2,47.3,39.2z"/>
			<path class="st2" d="M16.5,73.9c3-2,5.9-3,9-1.4c1.3,0.6,1.8-0.6,2.6-1c1.5-0.8,3.3-1.5,4.7-0.4c1.1,0.9,0.1,2.5-0.1,3.7
				c-0.7,3.4-2.3,5.6-6.3,5.2c-2.2-0.2-4.4,0-6.6-0.3c-7.5-1.2-9.6-3.6-9.5-11.1c0-5.2,0.1-10.4,0.2-15.7c0-1.3,0-3,1.8-3
				c2.1,0.1,1.8,1.8,1.6,3.3C12.7,60.3,14.6,66.9,16.5,73.9z"/>
			<path class="st2" d="M78.9,74c1.8-7.1,4-13.8,2.8-20.9c-0.2-1.3-0.5-3,1.4-3.2c1.9-0.2,1.9,1.4,2,2.8c0.1,6.7,0.1,13.3,0.2,20
				c0,2.9-2,4.4-4.2,5.4c-4.8,2.3-9.9,2.2-15,1.6c-1.9-0.2-4.8-7.3-3.5-8.5c1.3-1.2,3.1-0.7,4.3,0.1c1.6,1.1,2.9,1.3,4.8,0.6
				C74,71.1,76.3,72.3,78.9,74z"/>
			<path class="st2" d="M42.4,63.4c0.1-3.8,2.7-6.7,5.7-6.6c3.1,0.1,5.5,3.4,5.4,7.2c-0.2,3.8-2.7,6.7-5.7,6.6
				C44.7,70.6,42.2,67.2,42.4,63.4z"/>
			<path class="st2" d="M47.6,48.2c-2.2,0-4.5-0.2-6.7,0c-2.6,0.2-2.3-1.4-2.2-3c0-1.5-0.6-3.2,2.1-3.1c4.6,0.2,9.1,0.2,13.7,0
				c2.9-0.1,2.1,1.8,2.2,3.3c0.2,1.9-0.2,2.9-2.4,2.7C52,48,49.8,48.2,47.6,48.2z"/>
			<path class="st2" d="M7,50.5c0,2.4-0.1,4.9,0,7.3c0.1,1.9-0.5,2.4-2.4,2.4c-2,0-2.1-0.9-2.1-2.4c0-5,0.1-10,0-14.9
				c0-1.8,0.7-2.3,2.3-2.3c1.7,0,2.4,0.5,2.3,2.3C6.9,45.4,7,48,7,50.5z"/>
			<path class="st2" d="M88.3,50.6c0-2.5,0.1-5.1,0-7.6c-0.1-1.7,0.4-2.4,2.2-2.4c1.5,0.1,2.4,0.3,2.4,2.2c-0.1,5.1-0.1,10.2,0,15.3
				c0,1.8-0.7,2.1-2.4,2.2c-1.9,0.1-2.2-0.7-2.2-2.3C88.4,55.5,88.3,53.1,88.3,50.6z"/>
			<path class="st2" d="M41,16.6c4.8,0.9,8.6,2.3,12.5-0.3c0.1,0.3,0.2,0.7,0.4,1c-1.7,2.5-3.5,4.9-5.2,7.4c-0.9,1.2-1.4,0.5-2-0.3
				C44.9,22.2,43.3,19.9,41,16.6z"/>
			<path class="st2" d="M48.1,9.9c0.3,0,0.7-0.1,1,0c1.2,0.2,3.2-0.7,3.5,0.7c0.3,1.6-1.2,3-2.8,3.8c-2.4,1.2-5.7-0.4-6.4-3
				c-0.3-1.1,0-1.5,1-1.5C45.6,9.9,46.8,9.9,48.1,9.9C48.1,9.9,48.1,9.9,48.1,9.9z"/>
			<path class="st2" d="M43.7,6.7c0.6-2.4,2.1-3.5,4.3-3.6c2.1,0,3.6,1.2,4.4,3.6C49.4,6.7,46.6,6.7,43.7,6.7z"/>
			<path class="st2" d="M73.6,50.9c-0.4,1.4-1,2.3-2.1,2.1c-2.1-0.3-3.1-2.2-3.4-3.9c-0.2-1.1,1.8-2,2.6-1.9
				C72.8,47.5,72.5,50,73.6,50.9z"/>
			<path class="st2" d="M23.6,53.2c-1.3-0.3-2.1-1-1.8-1.9c0.6-1.5,0.8-3.7,2.8-4.1c0.6-0.1,2.6,0.6,2.2,1.9
				C26.4,50.8,25.3,52.5,23.6,53.2z"/>
			<path class="st2" d="M35.3,41.1c0.8,7.4,0.8,7.4-3.6,6.8C32.5,45.6,33.7,43.7,35.3,41.1z"/>
			<path class="st2" d="M51.1,73.7c-0.9,1.9-2,3-3.7,2.9c-1.8-0.2-2.7-1.5-3.6-3.5C46.4,73.7,48.5,73.9,51.1,73.7z"/>
			<path class="st2" d="M27.9,41.1c0.8,0.9,2.8,0.4,2.4,2.2c-0.2,0.9-0.5,2.8-2.1,2.3c-0.9-0.3-2.7-0.5-2.3-2.2
				C26.1,42.4,26.5,41.1,27.9,41.1z"/>
			<path class="st2" d="M63.5,48c-4.1,0.3-4.2,0.3-3.4-6.5C61.3,43.9,62.3,45.8,63.5,48z"/>
			<path class="st2" d="M67.5,41.5c1.3,0.2,1.8,1.3,1.8,2.1c-0.1,1.4-1.6,1.7-2.7,2c-1.2,0.3-1.5-0.9-1.6-1.7
				C64.8,42.3,66.7,42.4,67.5,41.5z"/>
			<path class="st2" d="M49,30.5c-0.2,0.7-0.7,1.1-1.5,1c-0.9-0.1-1.3-0.8-1.1-1.7c0.2-0.9,0.9-1.2,1.8-1
				C48.9,29.1,49.1,29.8,49,30.5z"/>
		</g>
	</g>
</g>
</svg>
